<?xml version="1.0" standalone="no"?>
<!DOCTYPE svg PUBLIC "-//W3C//DTD SVG 20010904//EN"
 "http://www.w3.org/TR/2001/REC-SVG-20010904/DTD/svg10.dtd">
<svg version="1.0" xmlns="http://www.w3.org/2000/svg"
 width="512.000000pt" height="512.000000pt" viewBox="0 0 512.000000 512.000000"
 preserveAspectRatio="xMidYMid meet">
<metadata>
Created by potrace 1.14, written by Peter Selinger 2001-2017
</metadata>
<g transform="translate(0.000000,512.000000) scale(0.100000,-0.100000)"
fill="#000000" stroke="none">
<path d="M567 4070 c-123 -31 -221 -139 -242 -266 -5 -34 -20 -55 -89 -125
-95 -96 -153 -190 -191 -303 -59 -176 -57 -351 6 -523 17 -48 34 -108 36 -133
2 -25 -16 -312 -42 -638 -39 -505 -44 -602 -35 -650 52 -252 295 -424 542
-383 40 6 101 26 137 43 79 37 175 130 211 203 20 40 315 428 406 534 l22 25
38 -33 c60 -54 189 -110 290 -128 151 -26 317 7 447 90 62 40 147 122 184 178
l26 39 247 0 247 0 27 -40 c87 -131 254 -237 421 -267 75 -13 105 -13 178 -4
131 17 254 69 329 138 14 14 31 22 36 19 23 -14 399 -506 422 -551 13 -27 52
-77 85 -111 186 -188 483 -188 671 0 39 39 72 84 91 126 59 125 59 109 7 800
l-48 625 37 97 c116 305 45 628 -187 860 -65 64 -75 80 -85 126 -22 106 -84
185 -181 231 -54 26 -57 26 -290 26 -233 0 -236 0 -290 -26 -98 -47 -168 -140
-185 -246 l-7 -43 -1278 0 -1278 0 -6 43 c-16 105 -87 200 -185 246 -54 25
-62 26 -271 28 -118 1 -232 -2 -253 -7z m300 -486 c107 -51 123 -197 29 -269
-80 -61 -188 -35 -233 55 -29 56 -29 84 0 140 39 78 127 110 204 74z m3546
-17 c98 -74 82 -219 -29 -272 -107 -50 -235 43 -221 161 13 121 155 184 250
111z m-3866 -303 c107 -51 123 -197 29 -269 -80 -61 -188 -35 -233 55 -29 56
-29 84 0 140 39 78 127 110 204 74z m640 0 c107 -51 123 -197 29 -269 -126
-96 -298 33 -241 181 33 87 129 127 212 88z m2906 -17 c98 -74 82 -219 -29
-272 -107 -50 -235 43 -221 161 13 121 155 184 250 111z m640 0 c98 -74 82
-219 -29 -272 -107 -50 -235 43 -221 161 13 121 155 184 250 111z m-3866 -303
c107 -51 123 -197 29 -269 -125 -95 -298 33 -242 179 35 91 127 130 213 90z
m3546 -17 c98 -74 82 -219 -29 -272 -107 -50 -235 43 -221 161 13 121 155 184
250 111z m-2518 -318 c63 -30 124 -90 156 -154 35 -72 35 -198 0 -270 -32 -63
-92 -124 -156 -155 -41 -20 -65 -25 -135 -24 -72 0 -93 4 -136 26 -75 39 -107
70 -145 140 -31 57 -34 71 -34 148 0 79 3 90 36 150 40 73 104 128 178 154 65
23 171 16 236 -15z m1600 0 c63 -30 123 -90 155 -154 35 -72 35 -198 0 -270
-31 -64 -91 -124 -155 -155 -41 -20 -65 -25 -135 -24 -72 0 -93 4 -136 26 -75
39 -107 70 -145 140 -30 56 -33 72 -34 143 0 86 11 124 57 192 81 120 258 166
393 102z"/>
</g>
</svg>
