<?xml version="1.0" ?><svg id="Layer_1" style="enable-background:new 0 0 24 24;" version="1.1" viewBox="0 0 24 24" xml:space="preserve" xmlns="http://www.w3.org/2000/svg" xmlns:xlink="http://www.w3.org/1999/xlink"><title/><g id="Santa_Bag_2"><g><path d="M18.5,16c0-4.63-0.94-7.34-4-8.2l0,0c0-1.19,2-4.52,2-5.8c0.057-0.771-0.521-1.443-1.292-1.5    c-0.069-0.005-0.139-0.005-0.208,0c-1.33,0-0.77,1-1.5,1s-0.6-1-2-1s-2,2-2,2s-2-0.15-2,1s2,3.13,2,4.3l0,0    c-3.06,0.86-4,3.57-4,8.2c0,0-2,2.92-2,5s5.31,2.5,8.5,2.5s8.5-0.42,8.5-2.5S18.5,16,18.5,16z" style="fill:#D51C29;"/><g><path d="M7.11,21c0.132-1.715,0.519-3.4,1.15-5     c0-4.63,0.54-7.34,2.3-8.2l0,0c0-1.17-1.15-3.24-1.15-4.3c-0.006-0.552,0.436-1.005,0.989-1.011     c0.054-0.001,0.108,0.003,0.161,0.011c0,0,0.34-1.9,1.1-2H11.5c-1.4,0-2,2-2,2s-2-0.15-2,1s2,3.13,2,4.3l0,0     c-3.06,0.86-4,3.57-4,8.2c0,0-2,2.92-2,5s5.31,2.5,8.5,2.5C10.17,23.5,7.11,23.08,7.11,21z" style="opacity:0.2;fill:#FFFFFF;enable-background:new    ;"/><path d="M18.5,16c0-4.63-0.94-7.34-4-8.2l0,0c0-1.19,2-4.52,2-5.8     c0.057-0.771-0.521-1.443-1.292-1.5c-0.069-0.005-0.139-0.005-0.208,0c-0.277-0.025-0.552,0.057-0.77,0.23     c0.254,0.373,0.38,0.819,0.36,1.27c0,1.28-1.15,4.61-1.15,5.8l0,0c1.76,0.86,2.3,3.57,2.3,8.2c0.631,1.6,1.018,3.285,1.15,5     c0,2.08-3.05,2.5-4.89,2.5c3.19,0,8.5-0.42,8.5-2.5S18.5,16,18.5,16z" style="opacity:0.1;enable-background:new    ;"/></g><g><path d="M18,4.5c-1.22,0-3.3,1.18-4.77,2.65c-0.466-0.678-1.394-0.85-2.072-0.384     C11.025,6.858,10.907,6.97,10.81,7.1l0,0C9.34,5.61,7.22,4.5,6,4.5s-0.5,2.16-0.5,3s-0.19,3,1,3c1.114-0.171,2.196-0.508,3.21-1     l-1.21,3L10,12l0.5,1.5l1.5-4l1.5,4L14,12l1.5,0.5l-1.1-3c0.974,0.495,2.02,0.833,3.1,1c1.19,0,1-2.16,1-3S19.22,4.5,18,4.5z" style="fill:#F8F8F8;"/><path d="M6,5.5c1.22,0,3.34,1.11,4.81,2.58l0,0c0.494-0.658,1.428-0.792,2.086-0.298     c0.13,0.097,0.242,0.215,0.334,0.348C14.7,6.68,16.78,5.5,18,5.5c0.42,0,0.6,0.26,0.67,0.63C18.77,5.31,18.75,4.5,18,4.5     c-1.22,0-3.3,1.18-4.77,2.65c-0.466-0.678-1.394-0.85-2.072-0.384C11.025,6.858,10.907,6.97,10.81,7.1l0,0     C9.34,5.61,7.22,4.5,6,4.5c-0.75,0-0.76,0.81-0.67,1.63C5.4,5.76,5.58,5.5,6,5.5z" style="fill:#FFFFFF;"/></g><path d="M19,15.85c0.059-1.739-0.184-3.475-0.72-5.13c0.045-0.027,0.089-0.057,0.13-0.09    C19,10,19,8.67,19,7.8V7.5c0.011-0.245,0.038-0.489,0.08-0.73c0.13-0.86,0.28-1.83-0.21-2.4C18.65,4.123,18.331,3.987,18,4    c-0.607,0.033-1.202,0.186-1.75,0.45C16.639,3.683,16.893,2.854,17,2c0.069-1.036-0.716-1.931-1.752-2    C15.166-0.005,15.083-0.005,15,0c-0.653-0.092-1.28,0.295-1.49,0.92c-0.003,0.027-0.003,0.053,0,0.08c-0.05,0-0.09,0-0.25-0.21    C12.848,0.242,12.183-0.056,11.5,0c-1.34,0-2.07,1.33-2.34,2C8.535,1.982,7.922,2.176,7.42,2.55C7.151,2.792,6.998,3.138,7,3.5    c0.011,0.241,0.065,0.478,0.16,0.7C6.785,4.076,6.394,4.009,6,4C5.664,3.987,5.341,4.127,5.12,4.38c-0.48,0.56-0.34,1.54-0.21,2.4    C4.955,7.018,4.985,7.258,5,7.5v0.3c0,0.86,0,2.17,0.59,2.82c0.041,0.033,0.085,0.063,0.13,0.09C5.183,12.368,4.94,14.108,5,15.85    C4.6,16.46,3,19,3,21c0,2.61,5.64,3,9,3s9-0.39,9-3C21,19,19.4,16.46,19,15.85z M18.12,5c0.19,0.22,0,1.11,0,1.59    c-0.053,0.291-0.086,0.585-0.1,0.88v0.32c0,0.57,0,1.75-0.31,2.1S15.9,9.59,14.58,9l0,0l-0.71-0.33    c0.181-0.456,0.181-0.964,0-1.42C15.21,6,17,5,18,5C18.039,4.985,18.081,4.985,18.12,5z M14.67,11.7l-0.51-0.17    c-0.262-0.085-0.544,0.058-0.63,0.32l-0.05,0.16l-0.8-2.13c0.231-0.084,0.444-0.209,0.63-0.37l0.68,0.33L14.67,11.7z M13,8    c0,0.552-0.448,1-1,1s-1-0.448-1-1s0.448-1,1-1S13,7.448,13,8z M10.06,9.87l0.69-0.32c0.171,0.137,0.364,0.245,0.57,0.32L10.53,12    l-0.05-0.16c-0.086-0.262-0.368-0.405-0.63-0.32l-0.49,0.16L10.06,9.87z M8,3.5C7.994,3.417,8.028,3.335,8.09,3.28    C8.507,3.047,8.985,2.95,9.46,3C9.701,3.03,9.929,2.882,10,2.65c0,0,0.51-1.65,1.5-1.65c0.39-0.043,0.773,0.129,1,0.45    c0.23,0.329,0.599,0.532,1,0.55c0.429-0.005,0.807-0.282,0.94-0.69C14.53,1.09,14.57,1,15,1c0.494-0.059,0.941,0.294,1,0.787    C16.008,1.858,16.008,1.929,16,2c-0.201,0.979-0.538,1.924-1,2.81l-0.18,0.41c-0.559,0.366-1.088,0.777-1.58,1.23    c-0.717-0.548-1.713-0.548-2.43,0C10.142,5.819,9.4,5.272,8.6,4.82C8.318,4.422,8.114,3.974,8,3.5z M5.88,5    C5.919,4.985,5.961,4.985,6,5c1.585,0.278,3.045,1.039,4.18,2.18c-0.211,0.499-0.211,1.061,0,1.56c-1.42,0.65-3.56,1.48-3.84,1.19    S6,8.39,6,7.82V7.5C5.986,7.205,5.953,6.911,5.9,6.62C5.83,6.14,5.7,5.24,5.88,5z M12,23c-4.71,0-8-0.82-8-2    c0-1.9,1.89-4.69,1.91-4.72C5.967,16.198,5.999,16.1,6,16c-0.075-1.695,0.159-3.389,0.69-5c0.718-0.111,1.42-0.309,2.09-0.59    L8,12.32c-0.102,0.257,0.023,0.547,0.28,0.649c0.109,0.043,0.229,0.047,0.34,0.011l1-0.34l0.34,1    c0.068,0.202,0.257,0.338,0.47,0.34l0,0c0.208,0.001,0.395-0.126,0.47-0.32l1-2.75l1,2.75c0.075,0.194,0.262,0.321,0.47,0.32l0,0    c0.213-0.002,0.402-0.138,0.47-0.34l0.34-1l1,0.34c0.261,0.09,0.546-0.049,0.635-0.31c0.038-0.11,0.036-0.23-0.005-0.34    l-0.72-1.94c0.658,0.288,1.35,0.49,2.06,0.6c0.587,1.604,0.875,3.302,0.85,5.01c0.001,0.1,0.033,0.198,0.09,0.28    c0,0,1.91,2.81,1.91,4.72C20,22.18,16.71,23,12,23z" style="fill:#303C42;"/><linearGradient gradientTransform="matrix(1 0 0 -1 0 24)" gradientUnits="userSpaceOnUse" id="SVGID_1_" x1="3.2505" x2="22.8406" y1="15.7123" y2="6.5723"><stop offset="0" style="stop-color:#FFFFFF;stop-opacity:0.2"/><stop offset="1" style="stop-color:#FFFFFF;stop-opacity:0"/></linearGradient><path d="M19,15.85c0.059-1.739-0.184-3.475-0.72-5.13c0.045-0.027,0.089-0.057,0.13-0.09    C19,10,19,8.67,19,7.8V7.5c0.011-0.245,0.038-0.489,0.08-0.73c0.13-0.86,0.28-1.83-0.21-2.4C18.65,4.123,18.331,3.987,18,4    c-0.607,0.033-1.202,0.186-1.75,0.45C16.639,3.683,16.893,2.854,17,2c0.069-1.036-0.716-1.931-1.752-2    C15.166-0.005,15.083-0.005,15,0c-0.653-0.092-1.28,0.295-1.49,0.92c-0.003,0.027-0.003,0.053,0,0.08c-0.05,0-0.09,0-0.25-0.21    C12.848,0.242,12.183-0.056,11.5,0c-1.34,0-2.07,1.33-2.34,2C8.535,1.982,7.922,2.176,7.42,2.55C7.151,2.792,6.998,3.138,7,3.5    c0.011,0.241,0.065,0.478,0.16,0.7C6.785,4.076,6.394,4.009,6,4C5.664,3.987,5.341,4.127,5.12,4.38c-0.48,0.56-0.34,1.54-0.21,2.4    C4.955,7.018,4.985,7.258,5,7.5v0.3c0,0.86,0,2.17,0.59,2.82c0.041,0.033,0.085,0.063,0.13,0.09C5.183,12.368,4.94,14.108,5,15.85    C4.6,16.46,3,19,3,21c0,2.61,5.64,3,9,3s9-0.39,9-3C21,19,19.4,16.46,19,15.85z" style="fill:url(#SVGID_1_);"/></g></g></svg>