<?xml version="1.0" ?><svg id="Layer_1" style="enable-background:new 0 0 24 24;" version="1.1" viewBox="0 0 24 24" xml:space="preserve" xmlns="http://www.w3.org/2000/svg" xmlns:xlink="http://www.w3.org/1999/xlink"><title/><g id="Ornament_1"><g><g><path d="M15.532,13.17c-1.18-1.18-1.85-0.5-3-1.68s-0.5-1.85-1.68-3S9.002,8,7.792,6.78S7.182,5,6.302,4     c-1.331,0.79-2.461,1.879-3.3,3.18c1,0.67,1.62,0.3,2.67,1.35c1.22,1.22,0.52,1.92,1.75,3.14s1.92,0.52,3.14,1.74     s0.52,1.92,1.74,3.14s1.92,0.52,3.13,1.74c1.05,1.05,0.68,1.72,1.35,2.67c1.311-0.823,2.413-1.939,3.22-3.26     c-1-0.89-1.71-0.4-2.81-1.5S16.712,14.35,15.532,13.17z" style="fill:#F8F8F8;"/><path d="M12.342,16.55c-1.22-1.22-0.52-1.92-1.74-3.14s-1.92-0.52-3.14-1.74s-0.52-1.92-1.74-3.14     c-1.06-1.06-1.72-0.68-2.72-1.35C0.014,11.825,1.358,18.012,6.003,21c3.295,2.119,7.524,2.119,10.819,0     c-0.67-0.95-0.29-1.61-1.35-2.67C14.262,17.07,13.562,17.77,12.342,16.55z" style="fill:#D51C29;"/><path d="M11.502,2.5C9.663,2.509,7.863,3.029,6.302,4c0.89,1,0.4,1.71,1.5,2.81s1.85,0.5,3,1.68     s0.5,1.85,1.68,3s1.85,0.5,3,1.68s0.51,1.85,1.69,3s1.83,0.64,2.83,1.53c2.872-4.717,1.376-10.87-3.342-13.742     C15.105,3.012,13.322,2.508,11.502,2.5z" style="fill:#D51C29;"/><path d="M20.472,8.1L20.472,8.1l2-2c-1.113-1.883-2.672-3.463-4.54-4.6l-2,2l0,0     C17.912,4.489,19.509,6.106,20.472,8.1z" style="fill:#E4E5E6;"/></g><path d="M11.502,2.5c-5.523,0-10,4.477-10,10s4.477,10,10,10s10-4.477,10-10    S17.024,2.5,11.502,2.5z M11.002,20c-4.418,0-8-3.582-8-8s3.582-8,8-8s8,3.582,8,8S15.42,20,11.002,20z" style="opacity:0.1;enable-background:new    ;"/><circle cx="9.002" cy="10" r="3.5" style="opacity:0.2;fill:#FFFFFF;enable-background:new    ;"/><g><path d="M14.002,16c0.552-0.003,0.997-0.453,0.994-1.006S14.542,13.997,13.99,14s-0.997,0.453-0.994,1.006     c0.002,0.265,0.108,0.518,0.296,0.704C13.48,15.897,13.736,16.002,14.002,16z" style="fill:#303C42;"/><path d="M9.002,11c0.552-0.003,0.997-0.453,0.994-1.006S9.542,8.997,8.99,9s-0.997,0.453-0.994,1.006     c0.002,0.265,0.108,0.518,0.296,0.704C8.48,10.897,8.736,11.002,9.002,11z" style="fill:#303C42;"/><path d="M21.932,4.36c0.892-0.373,1.312-1.398,0.939-2.29s-1.398-1.312-2.29-0.939     c-0.424,0.177-0.761,0.515-0.939,0.939c-0.458-0.364-0.939-0.698-1.44-1c-0.198-0.116-0.449-0.083-0.61,0.08l-1.79,1.78     C11.049,0.776,5.437,2.458,2.652,6.87l0,0l0,0c-3.123,4.873-1.705,11.355,3.169,14.478c3.44,2.205,7.847,2.209,11.291,0.012l0,0     c4.424-2.78,6.116-8.4,3.96-13.16l1.78-1.78c0.163-0.161,0.196-0.412,0.08-0.61C22.63,5.306,22.296,4.821,21.932,4.36z      M20.502,2.75c0-0.414,0.336-0.75,0.75-0.75s0.75,0.336,0.75,0.75s-0.336,0.75-0.75,0.75h-0.11c-0.2-0.21-0.4-0.42-0.62-0.62     C20.51,2.838,20.503,2.794,20.502,2.75z M6.502,5.44c0.155,0.663,0.503,1.265,1,1.73c0.463,0.5,1.066,0.849,1.73,1     c0.49,0.098,0.938,0.346,1.28,0.71c0.364,0.342,0.612,0.79,0.71,1.28c0.151,0.664,0.5,1.267,1,1.73c0.463,0.5,1.066,0.849,1.73,1     c0.998,0.223,1.777,1.002,2,2c0.151,0.664,0.5,1.267,1,1.73c0.466,0.496,1.068,0.844,1.73,1c0.281,0.066,0.551,0.174,0.8,0.32     c-0.16,0.233-0.33,0.46-0.51,0.68c-0.037-0.079-0.084-0.153-0.14-0.22c-0.419-0.359-1.051-0.31-1.41,0.109     c-0.321,0.374-0.321,0.927,0,1.301c0.067,0.056,0.141,0.103,0.22,0.14c-0.17,0.14-0.34,0.26-0.52,0.39     c-0.074-0.182-0.134-0.369-0.18-0.56c-0.32-1.457-1.475-2.585-2.94-2.87c-1.003-0.258-1.776-1.058-2-2.07     c-0.148-0.68-0.496-1.3-1-1.78c-0.48-0.503-1.1-0.852-1.78-1c-1.047-0.216-1.874-1.02-2.12-2.06c-0.149-0.68-0.497-1.299-1-1.78     c-0.481-0.503-1.1-0.851-1.78-1C4.13,7.161,3.942,7.087,3.762,7c0.13-0.18,0.25-0.35,0.39-0.52     c0.037,0.079,0.084,0.153,0.14,0.22c0.389,0.392,1.023,0.394,1.415,0.005S6.101,5.682,5.712,5.29     c-0.067-0.056-0.141-0.103-0.22-0.14c0.22-0.18,0.447-0.35,0.68-0.51c0.143,0.25,0.247,0.519,0.31,0.8H6.502z M2.002,12.5     c0-1.626,0.42-3.224,1.22-4.64c0.269,0.128,0.551,0.228,0.84,0.3c0.512,0.104,0.98,0.362,1.34,0.74     c0.379,0.36,0.637,0.828,0.74,1.34c0.149,0.68,0.497,1.299,1,1.78c0.48,0.503,1.1,0.852,1.78,1c0.512,0.103,0.98,0.361,1.34,0.74     c0.379,0.36,0.638,0.828,0.74,1.34c0.326,1.378,1.402,2.454,2.78,2.78c1.032,0.233,1.837,1.038,2.07,2.07     c0.072,0.286,0.172,0.564,0.3,0.83c-4.566,2.574-10.353,0.959-12.927-3.607C2.421,15.747,1.999,14.137,2.002,12.5z M19.872,17     c-0.311-0.19-0.648-0.335-1-0.43c-0.492-0.105-0.942-0.356-1.29-0.72c-0.364-0.346-0.612-0.797-0.71-1.29     c-0.321-1.334-1.365-2.374-2.7-2.69c-0.998-0.223-1.777-1.002-2-2c-0.151-0.664-0.5-1.267-1-1.73c-0.463-0.5-1.066-0.849-1.73-1     c-0.49-0.098-0.938-0.346-1.28-0.71c-0.365-0.347-0.616-0.797-0.72-1.29c-0.095-0.352-0.24-0.689-0.43-1     c4.611-2.491,10.369-0.772,12.86,3.839C21.392,10.794,21.392,14.185,19.872,17z M20.592,7.29c-0.926-1.603-2.257-2.934-3.86-3.86     l1.27-1.3c1.552,0.998,2.872,2.318,3.87,3.87L20.592,7.29z" style="fill:#303C42;"/></g><linearGradient gradientTransform="matrix(1 0 0 -1 0 24)" gradientUnits="userSpaceOnUse" id="SVGID_1_" x1="2.8775" x2="21.9061" y1="17.8383" y2="8.9643"><stop offset="0" style="stop-color:#FFFFFF;stop-opacity:0.2"/><stop offset="1" style="stop-color:#FFFFFF;stop-opacity:0"/></linearGradient><path d="M21.932,4.36c0.892-0.373,1.312-1.398,0.939-2.29s-1.398-1.312-2.29-0.939    c-0.424,0.177-0.761,0.515-0.939,0.939c-0.458-0.364-0.939-0.698-1.44-1c-0.198-0.116-0.449-0.083-0.61,0.08l-1.79,1.78    C11.049,0.776,5.437,2.458,2.652,6.87l0,0l0,0c-3.123,4.873-1.705,11.355,3.169,14.478c3.44,2.205,7.847,2.209,11.291,0.012l0,0    c4.424-2.78,6.116-8.4,3.96-13.16l1.78-1.78c0.163-0.161,0.196-0.412,0.08-0.61C22.63,5.306,22.296,4.821,21.932,4.36z     M21.252,3.5h-0.11c-0.2-0.21-0.4-0.42-0.62-0.62c-0.003-0.037-0.003-0.073,0-0.11c0-0.414,0.336-0.75,0.75-0.75    s0.75,0.336,0.75,0.75s-0.336,0.75-0.75,0.75L21.252,3.5z" style="fill:url(#SVGID_1_);"/></g></g></svg>