<?xml version="1.0" ?><svg id="Layer_1" style="enable-background:new 0 0 24 24;" version="1.1" viewBox="0 0 24 24" xml:space="preserve" xmlns="http://www.w3.org/2000/svg" xmlns:xlink="http://www.w3.org/1999/xlink"><title/><g id="Ornament_2"><g><path d="M15.974,13.15l-3.3-1.86L10.814,8l-3.33-1.9L6.284,4c-1.815,1.1-3.236,2.745-4.06,4.7l2.19,1.17    L6.104,13l3.16,1.69l1.71,3.19l3.16,1.69l1.17,2.18c1.973-0.816,3.637-2.238,4.75-4.06l-2.16-1.21L15.974,13.15z" style="fill:#F8F8F8;"/><path d="M10.974,17.88l-1.71-3.16L6.104,13l-1.69-3.13L2.224,8.7c-0.228,0.549-0.406,1.118-0.53,1.7    c-0.321,1.66-0.252,3.371,0.2,5c0.511,1.779,0.586,3.655,0.22,5.47c-0.075,0.588-0.295,1.148-0.64,1.63    c0.488-0.348,1.055-0.568,1.65-0.64c1.815-0.366,3.691-0.291,5.47,0.22c1.629,0.452,3.34,0.521,5,0.2    c0.582-0.124,1.151-0.302,1.7-0.53l-1.17-2.18L10.974,17.88z" style="fill:#D51C29;"/><path d="M20.444,8.1L20.444,8.1l2-2c-1.113-1.883-2.672-3.463-4.54-4.6l-2,2l0,0    C17.885,4.489,19.482,6.106,20.444,8.1z" style="fill:#E4E5E6;"/><path d="M10.034,2.6C8.701,2.803,7.424,3.28,6.284,4l1.2,2.1l3.33,1.9l1.86,3.33l3.3,1.82l1.87,3.33    l2.16,1.21c0.678-1.103,1.131-2.33,1.33-3.61c0.874-5.453-2.839-10.582-8.292-11.456C12.046,2.464,11.032,2.456,10.034,2.6z" style="fill:#D51C29;"/><path d="M10.034,2.6c-4.137,0.601-7.464,3.712-8.34,7.8    c-0.321,1.66-0.252,3.371,0.2,5c0.511,1.779,0.586,3.655,0.22,5.47c-0.075,0.588-0.295,1.148-0.64,1.63    c0.488-0.348,1.055-0.568,1.65-0.64c1.815-0.366,3.691-0.291,5.47,0.22c1.629,0.452,3.34,0.521,5,0.2    c5.427-1.025,8.995-6.256,7.97-11.682C20.55,5.23,15.417,1.669,10.034,2.6z M18.624,13c-0.543,3.242-3,5.83-6.21,6.54    c-0.52,0.107-1.049,0.161-1.58,0.16c-0.831-0.003-1.658-0.114-2.46-0.33c-1.232-0.338-2.503-0.513-3.78-0.52c-0.347,0-0.68,0-1,0    c0.119-1.619-0.044-3.246-0.48-4.81c-0.36-1.303-0.419-2.671-0.17-4c0.705-3.243,3.339-5.713,6.62-6.21    c0.384-0.053,0.772-0.08,1.16-0.08c4.418,0.001,7.999,3.583,7.998,8.002C18.722,12.17,18.689,12.587,18.624,13z" style="opacity:0.1;enable-background:new    ;"/><path d="M9.584,14.48c-0.479-0.003-0.957-0.067-1.42-0.19    c-0.659-0.178-1.326-0.322-2-0.43c-0.112-0.674-0.259-1.341-0.44-2c-0.2-0.709-0.241-1.453-0.12-2.18    c0.357-1.612,1.668-2.84,3.3-3.09c0.203-0.014,0.407-0.014,0.61,0c2.209-0.004,4.003,1.784,4.007,3.993    c0,0.227-0.019,0.453-0.057,0.677c-0.275,1.603-1.492,2.879-3.08,3.23C10.118,14.515,9.85,14.512,9.584,14.48z" style="opacity:0.2;fill:#FFFFFF;enable-background:new    ;"/><path d="M21.904,4.36c0.892-0.373,1.312-1.398,0.939-2.29s-1.398-1.312-2.29-0.939    c-0.424,0.177-0.761,0.515-0.939,0.939c-0.458-0.364-0.939-0.698-1.44-1c-0.198-0.116-0.449-0.083-0.61,0.08l-1.79,1.77    C10.492,0.54,4.281,2.892,1.9,8.174C1.593,8.856,1.36,9.569,1.204,10.3c-0.332,1.73-0.26,3.513,0.21,5.21    c0.49,1.701,0.562,3.495,0.21,5.23c-0.074,0.495-0.244,0.97-0.5,1.4l0,0l0,0l0,0c-0.191,0.202-0.182,0.519,0.02,0.71    s0.519,0.182,0.71-0.02l0,0c0.433-0.265,0.917-0.439,1.42-0.51c1.735-0.352,3.529-0.28,5.23,0.21    c1.697,0.471,3.48,0.543,5.21,0.21c4.244-0.9,7.494-4.324,8.17-8.61c0.327-2.034,0.052-4.12-0.79-6l1.77-1.77    c0.163-0.161,0.196-0.412,0.08-0.61C22.627,5.265,22.28,4.801,21.904,4.36z M20.474,2.75c0-0.414,0.336-0.75,0.75-0.75    s0.75,0.336,0.75,0.75s-0.336,0.75-0.75,0.75h-0.11c-0.2-0.21-0.4-0.42-0.62-0.62C20.483,2.838,20.476,2.794,20.474,2.75z     M13.474,21.75c-1.574,0.301-3.196,0.236-4.74-0.19c-1.104-0.305-2.244-0.463-3.39-0.47c-0.798,0.006-1.593,0.1-2.37,0.28    l-0.56,0.14c0-0.17,0.1-0.35,0.14-0.56c0.388-1.893,0.312-3.852-0.22-5.71c-0.427-1.544-0.492-3.166-0.19-4.74    c0.083-0.376,0.19-0.747,0.32-1.11l1.8,1l1.56,2.91c0.044,0.089,0.114,0.162,0.2,0.21L8.974,15l1.55,2.91    c0.047,0.09,0.12,0.163,0.21,0.21l2.91,1.55l1,1.78c-0.382,0.139-0.773,0.252-1.17,0.34V21.75z M15.474,21.04l-1.07-2    c-0.047-0.09-0.12-0.163-0.21-0.21l-2.91-1.55l-1.51-2.86c-0.044-0.088-0.114-0.161-0.2-0.21l-2.91-1.55l-1.56-2.91    C5.06,9.661,4.99,9.588,4.904,9.54l-2-1.08c0.72-1.52,1.823-2.826,3.2-3.79l1.08,1.92c0.045,0.079,0.111,0.145,0.19,0.19    l3.08,1.72l1.72,3.08c0.045,0.079,0.111,0.145,0.19,0.19l3.08,1.72l1.73,3.09c0.045,0.079,0.111,0.145,0.19,0.19l1.94,1.09    c-0.957,1.393-2.269,2.504-3.8,3.22L15.474,21.04z M20.854,14c-0.159,1.05-0.497,2.065-1,3l-1.88-1l-1.72-3.1    c-0.045-0.079-0.111-0.145-0.19-0.19L12.974,11l-1.72-3.1c-0.045-0.079-0.111-0.145-0.19-0.19L7.974,6l-1-1.85    c0.971-0.536,2.032-0.892,3.13-1.05c1.895-0.262,3.825,0.051,5.54,0.9h0.06C19.424,5.847,21.511,9.899,20.854,14z M20.564,7.26    c-0.916-1.611-2.249-2.944-3.86-3.86l1.27-1.27c1.552,0.998,2.872,2.318,3.87,3.87L20.564,7.26z" style="fill:#303C42;"/><linearGradient gradientTransform="matrix(1 0 0 -1 0 24)" gradientUnits="userSpaceOnUse" id="SVGID_1_" x1="2.1528" x2="21.2162" y1="16.3691" y2="7.4728"><stop offset="0" style="stop-color:#FFFFFF;stop-opacity:0.2"/><stop offset="1" style="stop-color:#FFFFFF;stop-opacity:0"/></linearGradient><path d="M21.904,4.36c0.892-0.373,1.312-1.398,0.939-2.29s-1.398-1.312-2.29-0.939    c-0.424,0.177-0.761,0.515-0.939,0.939c-0.458-0.364-0.939-0.698-1.44-1c-0.198-0.116-0.449-0.083-0.61,0.08l-1.79,1.77    C10.492,0.54,4.281,2.892,1.9,8.174C1.593,8.856,1.36,9.569,1.204,10.3c-0.332,1.73-0.26,3.513,0.21,5.21    c0.49,1.701,0.562,3.495,0.21,5.23c-0.074,0.495-0.244,0.97-0.5,1.4l0,0l0,0l0,0c-0.191,0.202-0.182,0.519,0.02,0.71    s0.519,0.182,0.71-0.02l0,0c0.433-0.265,0.917-0.439,1.42-0.51c1.735-0.352,3.529-0.28,5.23,0.21    c1.697,0.471,3.48,0.543,5.21,0.21c4.244-0.9,7.494-4.324,8.17-8.61c0.327-2.034,0.052-4.12-0.79-6l1.77-1.77    c0.163-0.161,0.196-0.412,0.08-0.61C22.627,5.265,22.28,4.801,21.904,4.36z M20.474,2.75c0-0.414,0.336-0.75,0.75-0.75    s0.75,0.336,0.75,0.75s-0.336,0.75-0.75,0.75h-0.11c-0.2-0.21-0.4-0.42-0.62-0.62C20.483,2.838,20.476,2.794,20.474,2.75z" style="fill:url(#SVGID_1_);"/></g></g></svg>