<?xml version="1.0" ?><svg id="Layer_1" style="enable-background:new 0 0 24 24;" version="1.1" viewBox="0 0 24 24" xml:space="preserve" xmlns="http://www.w3.org/2000/svg" xmlns:xlink="http://www.w3.org/1999/xlink"><title/><g id="Xmas_Tag"><g><path d="M21.803,11.79l-9.41-9.41c-0.562-0.563-1.325-0.879-2.12-0.88h-7.26c-0.828,0-1.5,0.672-1.5,1.5    v7.26c0.001,0.795,0.317,1.558,0.88,2.12l9.41,9.41c0.941,0.942,2.467,0.942,3.408,0.002c0.001-0.001,0.001-0.001,0.002-0.002    l6.59-6.59c0.942-0.941,0.942-2.467,0.002-3.408C21.804,11.791,21.803,11.791,21.803,11.79z M5.013,6.5    c-0.828,0-1.5-0.672-1.5-1.5s0.672-1.5,1.5-1.5s1.5,0.672,1.5,1.5S5.841,6.5,5.013,6.5z" style="fill:#D51C29;"/><path d="M21.803,11.79l-9.41-9.41c-0.562-0.563-1.325-0.879-2.12-0.88h-1.5    c0.795,0.001,1.558,0.317,2.12,0.88l9.41,9.41c0.942,0.941,0.942,2.467,0.002,3.408c-0.001,0.001-0.001,0.001-0.002,0.002    l-6.59,6.59c-0.281,0.272-0.624,0.471-1,0.58c0.863,0.302,1.823,0.075,2.46-0.58l6.59-6.59c0.942-0.941,0.942-2.467,0.002-3.408    c-0.001-0.001-0.001-0.001-0.002-0.002L21.803,11.79z" style="opacity:0.1;enable-background:new    ;"/><path d="M13.303,21.79l-9.41-9.41    c-0.563-0.562-0.879-1.325-0.88-2.12V3c0-0.828,0.672-1.5,1.5-1.5h-1.5c-0.828,0-1.5,0.672-1.5,1.5v7.26    c0.001,0.795,0.317,1.558,0.88,2.12l9.41,9.41c0.637,0.655,1.597,0.882,2.46,0.58C13.901,22.255,13.572,22.056,13.303,21.79z" style="opacity:0.2;fill:#FFFFFF;enable-background:new    ;"/><g><path d="M22.163,11.44L12.743,2c-0.661-0.65-1.553-1.01-2.48-1h-7.25c-1.105,0-2,0.895-2,2v7.26     c-0.01,0.927,0.35,1.819,1,2.48l9.41,9.41c1.135,1.138,2.978,1.14,4.115,0.005c0.002-0.002,0.003-0.003,0.005-0.005l6.59-6.59     c1.138-1.135,1.14-2.978,0.005-4.115c-0.002-0.002-0.003-0.003-0.005-0.005H22.163z M21.453,14.85l-6.59,6.59     c-0.766,0.705-1.944,0.705-2.71,0L2.743,12c-0.463-0.461-0.725-1.086-0.73-1.74V3c0-0.552,0.448-1,1-1h7.26     c0.654,0.005,1.279,0.267,1.74,0.73l9.41,9.41c0.748,0.743,0.752,1.953,0.009,2.701c-0.003,0.003-0.006,0.006-0.009,0.009H21.453     z" style="fill:#303C42;"/><path d="M5.013,3c-1.105,0-2,0.895-2,2s0.895,2,2,2s2-0.895,2-2S6.117,3,5.013,3z M5.013,6     c-0.552,0-1-0.448-1-1s0.448-1,1-1s1,0.448,1,1S5.565,6,5.013,6z" style="fill:#303C42;"/></g><path d="M14.263,11.92l0.54,0.61c0.173,0.215,0.488,0.249,0.703,0.076c0.215-0.173,0.249-0.488,0.076-0.703    c-0.009-0.011-0.019-0.022-0.029-0.033l-0.54-0.66l0.17-0.85c0.055-0.276-0.124-0.545-0.4-0.6c-0.276-0.055-0.545,0.124-0.6,0.4    L14.013,11l-1.28,0.34l0.33-1.34l0.79-0.16c0.276-0.055,0.455-0.324,0.4-0.6c-0.055-0.276-0.324-0.455-0.6-0.4L12.803,9    l-0.65-0.58c-0.215-0.173-0.53-0.139-0.703,0.076c-0.163,0.202-0.144,0.495,0.043,0.674l0.61,0.54L11.753,11l-0.94-0.94l0.26-0.77    c0.05-0.272-0.131-0.532-0.402-0.582C10.442,8.667,10.216,8.788,10.123,9l-0.27,0.82l-0.84,0.29    c-0.276,0.044-0.464,0.304-0.42,0.58s0.304,0.464,0.58,0.42h0.16l0.77-0.26l0.94,0.94l-1.28,0.34l-0.54-0.61    c-0.173-0.215-0.488-0.249-0.703-0.076c-0.215,0.173-0.249,0.488-0.076,0.703c0.009,0.011,0.019,0.022,0.029,0.033l0.58,0.65    l-0.17,0.85c-0.055,0.271,0.119,0.535,0.39,0.59c0,0,0,0,0,0h0.1c0.238,0,0.442-0.167,0.49-0.4l0.15-0.87l1.28-0.34L10.963,14    l-0.79,0.16c-0.276,0.055-0.455,0.324-0.4,0.6c0.055,0.276,0.324,0.455,0.6,0.4l0.85-0.17l0.65,0.58    c0.215,0.173,0.53,0.139,0.703-0.076c0.163-0.202,0.144-0.495-0.043-0.674l-0.61-0.54l0.35-1.28l0.94,0.94l-0.26,0.77    c-0.085,0.262,0.058,0.544,0.32,0.63h0.16c0.213-0.002,0.402-0.138,0.47-0.34l0.27-0.82l0.82-0.27    c0.262-0.088,0.403-0.373,0.315-0.635c-0.088-0.262-0.373-0.403-0.635-0.315l-0.77,0.26l-0.89-0.96L14.263,11.92z" style="fill:#F8F8F8;"/><linearGradient gradientTransform="matrix(1 0 0 -1 0 24)" gradientUnits="userSpaceOnUse" id="SVGID_1_" x1="-0.6517" x2="21.8368" y1="17.8762" y2="7.3862"><stop offset="0" style="stop-color:#FFFFFF;stop-opacity:0.2"/><stop offset="1" style="stop-color:#FFFFFF;stop-opacity:0"/></linearGradient><path d="M22.163,11.44L12.743,2c-0.66-0.644-1.547-1.003-2.47-1h-7.26c-1.105,0-2,0.895-2,2v7.26    c-0.01,0.927,0.35,1.819,1,2.48l9.41,9.41c1.135,1.138,2.978,1.14,4.115,0.005c0.002-0.002,0.003-0.003,0.005-0.005l6.59-6.59    c1.138-1.135,1.14-2.978,0.005-4.115c-0.002-0.002-0.003-0.003-0.005-0.005H22.163z M6.013,5c0,0.552-0.448,1-1,1s-1-0.448-1-1    s0.448-1,1-1S6.013,4.448,6.013,5z" style="fill:url(#SVGID_1_);"/></g></g></svg>