<?xml version="1.0" ?><svg id="Layer_1" style="enable-background:new 0 0 24 24;" version="1.1" viewBox="0 0 24 24" xml:space="preserve" xmlns="http://www.w3.org/2000/svg" xmlns:xlink="http://www.w3.org/1999/xlink"><title/><g id="Xmas_Shopping"><polygon id="_Path_" points="15.5,6.5 15.5,1.5 17.5,3.5 17.5,6.5  " style="fill:#E4E5E6;"/><polygon id="_Path_2" points="8.5,6.5 8.5,1.5 6.5,3.5 6.5,6.5  " style="fill:#E4E5E6;"/><path d="M1.5,6.5h21l0,0V21c0,0.828-0.672,1.5-1.5,1.5H3c-0.828,0-1.5-0.672-1.5-1.5V6.5   L1.5,6.5z" id="_Rectangle_" style="fill:#F8F8F8;"/><path d="M3.5,21V6.5h-2V21c0,0.828,0.672,1.5,1.5,1.5h2C4.172,22.5,3.5,21.828,3.5,21z" style="fill:#FFFFFF;"/><path d="M20.5,6.5V21c0,0.828-0.672,1.5-1.5,1.5h2c0.828,0,1.5-0.672,1.5-1.5V6.5   H20.5z" style="opacity:0.1;enable-background:new    ;"/><rect height="2" id="_Path_3" style="fill:#E4E5E6;" width="7" x="8.5" y="1.5"/><polygon points="9,1.5 11,3.5 8.5,3.5 8.5,1.5  " style="opacity:0.1;enable-background:new    ;"/><g><path d="M10.5,13.5c-0.008-1.37,1.096-2.486,2.466-2.494c0.298-0.002,0.594,0.05,0.874,0.154    c-0.469-1.293-1.897-1.96-3.19-1.491s-1.96,1.897-1.491,3.19c0.252,0.693,0.798,1.24,1.491,1.491    C10.551,14.078,10.5,13.79,10.5,13.5z" style="fill:#D51C29;"/><circle cx="13" cy="13.5" r="2.5" style="fill:#D51C29;"/></g><circle cx="12.5" cy="13" r="0.5" style="opacity:0.2;fill:#FFFFFF;enable-background:new    ;"/><circle cx="11" cy="11.5" r="0.5" style="opacity:0.2;fill:#FFFFFF;enable-background:new    ;"/><g><g><path d="M17,16.5c-0.836-0.282-1.515-0.903-1.87-1.71l0,0C14.681,15.539,13.873,15.998,13,16h-0.22l0,0     c0.41,0.769,0.489,1.671,0.22,2.5l0,0c0.978,0.002,1.934,0.29,2.75,0.83L16,19.5l0,0c0.002-0.978,0.29-1.934,0.83-2.75L17,16.5z" style="fill:#0DB14B;"/><path d="M11.56,15.54c-0.414-0.296-0.728-0.711-0.9-1.19c-0.345-0.124-0.659-0.322-0.92-0.58     C9.243,14.833,8.173,15.509,7,15.5l0.08,0.3c0.279,1.116,0.279,2.284,0,3.4L7,19.5c1.313-0.328,2.687-0.328,4,0l-0.15-0.91     c-0.178-1.074,0.077-2.174,0.71-3.06V15.54z" style="fill:#0DB14B;"/></g><path d="M14.5,18.5L14.5,18.5c0.269-0.829,0.19-1.731-0.22-2.5l0,0    h0.22c0.435,0.002,0.863-0.112,1.24-0.33c-0.247-0.258-0.45-0.556-0.6-0.88C14.689,15.542,13.877,16.001,13,16h-0.22l0,0    c0.41,0.769,0.489,1.671,0.22,2.5l0,0c0.978,0.002,1.934,0.29,2.75,0.83L16,19.5l0,0c0.002-0.248,0.022-0.495,0.06-0.74    C15.557,18.59,15.031,18.502,14.5,18.5z" style="opacity:0.2;fill:#FFFFFF;enable-background:new    ;"/><path d="M7,19.5c0.509-0.122,1.028-0.196,1.55-0.22V19.2    c0.279-1.116,0.279-2.284,0-3.4l-0.08-0.3c0.855,0.001,1.67-0.363,2.24-1c0-0.06-0.06-0.1-0.09-0.16    c-0.345-0.124-0.659-0.322-0.92-0.58C9.212,14.814,8.161,15.491,7,15.5l0.08,0.3c0.279,1.116,0.279,2.284,0,3.4L7,19.5z" style="opacity:0.2;fill:#FFFFFF;enable-background:new    ;"/></g><g><path d="M22.5,6H18V3.5c-0.002-0.132-0.056-0.258-0.15-0.35l-2-2C15.758,1.056,15.632,1.002,15.5,1h-7    C8.368,1.002,8.242,1.056,8.15,1.15l-2,2C6.056,3.242,6.002,3.368,6,3.5V6H1.5C1.224,6,1,6.224,1,6.5V21c0,1.105,0.895,2,2,2h18    c1.105,0,2-0.895,2-2V6.5C23,6.224,22.776,6,22.5,6z M17,6h-1V2.71l1,1V6z M9,6V4h6v2H9z M15,3H9V2h6V3z M7,3.71l1-1V6H7V3.71z     M22,21c0,0.552-0.448,1-1,1H3c-0.552,0-1-0.448-1-1V7h20V21z" style="fill:#303C42;"/><path d="M17.16,16c-0.623-0.22-1.141-0.666-1.45-1.25c0.186-0.391,0.285-0.817,0.29-1.25    c-0.002-1.187-0.704-2.261-1.79-2.74C13.63,9.208,11.902,8.42,10.35,9s-2.34,2.308-1.76,3.86c0.123,0.329,0.302,0.633,0.531,0.9    C8.679,14.516,7.875,14.986,7,15c-0.276,0.003-0.498,0.229-0.495,0.505c0,0.039,0.005,0.077,0.015,0.115l0.08,0.3    c0.257,1.034,0.257,2.116,0,3.15l-0.08,0.3c-0.072,0.267,0.086,0.541,0.353,0.613C6.914,19.994,6.957,20,7,20h0.12    c1.235-0.307,2.525-0.307,3.76,0c0.268,0.065,0.539-0.101,0.603-0.369c0.016-0.066,0.018-0.134,0.007-0.201l-0.15-0.91    c-0.128-0.79,0.013-1.6,0.4-2.3c0.217,0.104,0.445,0.181,0.68,0.23c0.265,0.6,0.3,1.276,0.1,1.9    c-0.083,0.263,0.064,0.544,0.327,0.627C12.896,18.993,12.948,19,13,19c0.88-0.001,1.739,0.26,2.47,0.75l0.25,0.17    c0.229,0.155,0.54,0.095,0.694-0.134c0.057-0.084,0.087-0.184,0.086-0.286c-0.007-0.89,0.255-1.761,0.75-2.5l0.17-0.25    c0.152-0.23,0.089-0.541-0.142-0.693C17.241,16.033,17.202,16.014,17.16,16z M15,13.5c0,1.105-0.895,2-2,2s-2-0.895-2-2    s0.895-2,2-2S15,12.395,15,13.5z M11.5,10c0.482,0.011,0.943,0.196,1.3,0.52c-1.497,0.096-2.693,1.284-2.8,2.78    c-0.317-0.359-0.494-0.821-0.5-1.3C9.5,10.895,10.395,10,11.5,10z M10.36,18.67v0.19c-0.904-0.142-1.826-0.142-2.73,0    c0.189-0.961,0.189-1.949,0-2.91c0.906-0.175,1.71-0.695,2.24-1.45c0.128,0.083,0.261,0.157,0.4,0.22    c0.157,0.353,0.382,0.672,0.66,0.94C10.399,16.568,10.197,17.631,10.36,18.67z M15.57,18.67c-0.601-0.346-1.263-0.573-1.95-0.67    c0.073-0.53,0.028-1.069-0.13-1.58c0.594-0.099,1.145-0.374,1.58-0.79c0.314,0.436,0.72,0.798,1.19,1.06    c-0.353,0.6-0.587,1.262-0.69,1.95V18.67z" style="fill:#303C42;"/></g><linearGradient gradientTransform="matrix(1 0 0 -1 0 24)" gradientUnits="userSpaceOnUse" id="SVGID_1_" x1="0.2942" x2="24.1307" y1="16.0979" y2="4.9795"><stop offset="0" style="stop-color:#FFFFFF;stop-opacity:0.2"/><stop offset="1" style="stop-color:#FFFFFF;stop-opacity:0"/></linearGradient><path d="M22.5,6H18V3.5c-0.002-0.132-0.056-0.258-0.15-0.35l-2-2C15.758,1.056,15.632,1.002,15.5,1   h-7C8.368,1.002,8.242,1.056,8.15,1.15l-2,2C6.056,3.242,6.002,3.368,6,3.5V6H1.5C1.224,6,1,6.224,1,6.5V21c0,1.105,0.895,2,2,2h18   c1.105,0,2-0.895,2-2V6.5C23,6.224,22.776,6,22.5,6z M15,6H9V4h6V6z" style="fill:url(#SVGID_1_);"/></g></svg>