<?xml version="1.0" ?><svg id="Layer_1" style="enable-background:new 0 0 24 24;" version="1.1" viewBox="0 0 24 24" xml:space="preserve" xmlns="http://www.w3.org/2000/svg" xmlns:xlink="http://www.w3.org/1999/xlink"><title/><g id="Star_2"><g><polygon points="16.492,11 20.992,13.5 19.492,8.5 23.492,5 18.492,4.5 16.492,0.5 14.492,4.5 9.492,5     13.492,8.5 11.992,13.5   " style="fill:#FFCF01;"/><polygon points="16.492,0.5 16.492,7 18.492,4.5   " style="opacity:0.1;enable-background:new    ;"/><polygon points="16.492,7 23.492,5 19.492,8.5   " style="opacity:0.1;enable-background:new    ;"/><polygon points="16.492,7 19.492,8.5 20.992,13.5   " style="opacity:0.1;enable-background:new    ;"/><polygon points="16.492,0.5 16.492,7 14.492,4.5   " style="opacity:0.2;fill:#FFFFFF;enable-background:new    ;"/><path d="M13.492,8.5L11.722,7h-0.23c-11.25,4.13-11,12.5-11,12.5l5-2c0,0-0.12,3.94,2,6    c0,0,0.66-6.87,4.54-10.12L13.492,8.5z" style="fill:#FFCF01;"/><path d="M12.432,7.57L11.722,7h-0.23c-11.25,4.13-11,12.5-11,12.5    l1.08-0.43C1.882,16.75,3.572,10.84,12.432,7.57z" style="opacity:0.26;fill:#FFFFFF;enable-background:new    ;"/><polygon points="16.492,7 9.492,5 13.492,8.5   " style="opacity:0.1;enable-background:new    ;"/><polygon points="16.492,7 16.492,11 11.992,13.5   " style="opacity:0.1;enable-background:new    ;"/><path d="M6.582,22.29c0.243,0.445,0.549,0.853,0.91,1.21c0,0,0.66-6.87,4.5-10.12    l0.4-1.34C7.492,14.55,6.852,20.49,6.582,22.29z" style="opacity:0.1;enable-background:new    ;"/><path d="M23.992,4.85c-0.06-0.193-0.229-0.331-0.43-0.35L18.812,4l-1.87-3.72    c-0.149-0.246-0.468-0.325-0.714-0.176c-0.072,0.044-0.132,0.104-0.176,0.176L14.172,4l-4.73,0.5    C9.167,4.529,8.968,4.776,8.998,5.05c0.013,0.123,0.072,0.237,0.164,0.32l1.58,1.38C-0.128,11-0.008,19.43-0.008,19.52    c-0.01,0.276,0.206,0.508,0.482,0.517C0.545,20.04,0.616,20.027,0.682,20l4.31-1.77c0.07,1.3,0.44,4,2.14,5.63    c0.191,0.2,0.507,0.207,0.707,0.016c0.09-0.086,0.144-0.202,0.153-0.326c0-0.07,0.66-6.44,4.15-9.59c0,0,0.06,0,0.09,0l4.26-2.37    l4.26,2.37c0.075,0.033,0.158,0.047,0.24,0.04c0.276,0,0.5-0.224,0.5-0.5c0-0.047-0.007-0.095-0.02-0.14l-1.41-4.7l3.76-3.29    C23.976,5.246,24.043,5.042,23.992,4.85z M7.162,22.29c-0.787-1.466-1.189-3.107-1.17-4.77c0.033-0.274-0.163-0.523-0.438-0.555    C5.468,16.954,5.381,16.967,5.302,17l-4.31,1.74c0.23-2.08,1.67-8,10.55-11.25l1.34,1.17l-1.29,4.43    C8.632,15.67,7.532,20.17,7.162,22.29z M19.162,8.12c-0.148,0.129-0.206,0.332-0.15,0.52l1.15,3.82l-3.42-1.9    c-0.152-0.086-0.338-0.086-0.49,0l-3.42,1.9l1.16-3.82c0.056-0.188-0.002-0.391-0.15-0.52l-3.15-2.74L14.542,5    c0.171-0.015,0.322-0.117,0.4-0.27l1.55-3.11l1.55,3.11c0.078,0.153,0.229,0.255,0.4,0.27l3.85,0.39L19.162,8.12z" style="fill:#303C42;"/><linearGradient gradientTransform="matrix(1 0 0 -1 0 24)" gradientUnits="userSpaceOnUse" id="SVGID_1_" x1="4.2191" x2="20.406" y1="15.6028" y2="8.0596"><stop offset="0" style="stop-color:#FFFFFF;stop-opacity:0.2"/><stop offset="1" style="stop-color:#FFFFFF;stop-opacity:0"/></linearGradient><path d="M23.992,4.85c-0.06-0.193-0.229-0.331-0.43-0.35L18.812,4l-1.87-3.72    c-0.149-0.246-0.468-0.325-0.714-0.176c-0.072,0.044-0.132,0.104-0.176,0.176L14.172,4l-4.73,0.5    C9.167,4.529,8.968,4.776,8.998,5.05c0.013,0.123,0.072,0.237,0.164,0.32l1.58,1.38C-0.128,11-0.008,19.43-0.008,19.52    c-0.01,0.276,0.206,0.508,0.482,0.517C0.545,20.04,0.616,20.027,0.682,20l4.31-1.77c0.07,1.3,0.44,4,2.14,5.63    c0.191,0.2,0.507,0.207,0.707,0.016c0.09-0.086,0.144-0.202,0.153-0.326c0-0.07,0.66-6.44,4.15-9.59c0,0,0.06,0,0.09,0l4.26-2.37    l4.26,2.37c0.075,0.033,0.158,0.047,0.24,0.04c0.276,0,0.5-0.224,0.5-0.5c0-0.047-0.007-0.095-0.02-0.14l-1.41-4.7l3.76-3.29    C23.976,5.246,24.043,5.042,23.992,4.85z" style="fill:url(#SVGID_1_);"/></g></g></svg>