<?xml version="1.0" ?><svg id="Layer_1" style="enable-background:new 0 0 24 24;" version="1.1" viewBox="0 0 24 24" xml:space="preserve" xmlns="http://www.w3.org/2000/svg" xmlns:xlink="http://www.w3.org/1999/xlink"><title/><g id="Santa_Slide"><g><g><linearGradient gradientTransform="matrix(1 0 0 -1 0 24)" gradientUnits="userSpaceOnUse" id="SVGID_1_" x1="-0.7339" x2="24.1161" y1="18.0649" y2="6.4849"><stop offset="0" style="stop-color:#FFFFFF;stop-opacity:0.2"/><stop offset="1" style="stop-color:#FFFFFF;stop-opacity:0"/></linearGradient><path d="M16.88,8.34L16.88,8.34c-0.81,1.371-2.298,2.197-3.89,2.16c-3.62,0-7.56-6-12.5-6     c0,0,4.5,2.79,4.5,6c0,2-0.5,1.54-0.5,3s3.54,2,7.5,2S21.18,13.54,16.88,8.34z" style="fill:url(#SVGID_1_);"/><linearGradient gradientTransform="matrix(1 0 0 -1 0 24)" gradientUnits="userSpaceOnUse" id="SVGID_2_" x1="-1.3343" x2="23.5158" y1="16.7766" y2="5.1966"><stop offset="0" style="stop-color:#FFFFFF;stop-opacity:0.2"/><stop offset="1" style="stop-color:#FFFFFF;stop-opacity:0"/></linearGradient><path d="M5.74,13c0-1.46,0.5-1,0.5-3s-1.69-3.78-3-4.88C2.373,4.735,1.438,4.525,0.49,4.5     c0,0,4.5,2.79,4.5,6c0,2-0.5,1.54-0.5,3s3.54,2,7.5,2c1.621,0.045,3.229-0.298,4.69-1c-1.114,0.346-2.274,0.521-3.44,0.52     C9.28,15,5.74,14.43,5.74,13z" style="fill:url(#SVGID_2_);"/><linearGradient gradientTransform="matrix(1 0 0 -1 0 24)" gradientUnits="userSpaceOnUse" id="SVGID_3_" x1="0.0302" x2="24.8802" y1="19.7047" y2="8.1247"><stop offset="0" style="stop-color:#FFFFFF;stop-opacity:0.2"/><stop offset="1" style="stop-color:#FFFFFF;stop-opacity:0"/></linearGradient><path d="M16.94,8.51L16.94,8.51c-0.244,0.389-0.54,0.742-0.88,1.05c2.06,2.8,1.24,4.6-0.58,5.6     C18.21,14.28,19.99,12.23,16.94,8.51z" style="fill:url(#SVGID_3_);"/><linearGradient gradientTransform="matrix(1 0 0 -1 0 24)" gradientUnits="userSpaceOnUse" id="SVGID_4_" x1="-1.6957" x2="23.1719" y1="15.9702" y2="4.382"><stop offset="0" style="stop-color:#FFFFFF;stop-opacity:0.2"/><stop offset="1" style="stop-color:#FFFFFF;stop-opacity:0"/></linearGradient><path d="M21.49,14c-1.511,0.153-2.622,1.486-2.5,3c0,0.276,0.224,0.5,0.5,0.5s0.5-0.224,0.5-0.5     c0-1.1,0.67-2,1.5-2s1.5,0.9,1.5,2s-0.67,2-1.5,2H16.8l-1.66-3.41c1.484-0.265,2.782-1.158,3.56-2.45c0.64-1.37,0.23-3-1.22-4.85     c0.214-0.369,0.385-0.762,0.51-1.17c0.066-0.276-0.104-0.554-0.38-0.62c-0.276-0.066-0.554,0.104-0.62,0.38     C16.877,7.273,16.712,7.65,16.5,8c-0.033,0.039-0.06,0.083-0.08,0.13c-0.729,1.189-2.035,1.901-3.43,1.87     c-1.51,0-3.2-1.24-5-2.56C5.8,5.83,3.31,4,0.49,4C0.214,4.006-0.005,4.235,0.001,4.511C0.005,4.677,0.09,4.83,0.23,4.92     c0,0,4.26,2.68,4.26,5.58c0.045,0.548-0.037,1.099-0.24,1.61c-0.192,0.437-0.281,0.913-0.26,1.39c0,1.1,1.23,1.73,2.92,2.09     L5.18,19H1.49c-0.276,0-0.5,0.224-0.5,0.5S1.214,20,1.49,20h20c1.511-0.153,2.622-1.486,2.5-3     C24.112,15.486,23.001,14.153,21.49,14z M4.99,13.5c-0.019-0.343,0.042-0.685,0.18-1c0.26-0.633,0.369-1.318,0.32-2     c0-2.12-1.72-4-3.08-5.19c1.812,0.709,3.5,1.701,5,2.94C9.33,9.66,11.15,11,12.99,11c1.515,0.037,2.96-0.641,3.9-1.83     c1,1.42,1.34,2.61,0.9,3.55c-0.74,1.57-3.45,2.28-5.8,2.28C7.18,15,4.99,14.22,4.99,13.5z M7.99,15.77     c1.327,0.164,2.663,0.241,4,0.23c0.717-0.004,1.433-0.067,2.14-0.19L15.69,19H6.3L7.99,15.77z" style="fill:url(#SVGID_4_);"/><linearGradient gradientTransform="matrix(1 0 0 -1 0 24)" gradientUnits="userSpaceOnUse" id="SVGID_5_" x1="-1.6957" x2="23.1719" y1="15.9702" y2="4.382"><stop offset="0" style="stop-color:#FFFFFF;stop-opacity:0.2"/><stop offset="1" style="stop-color:#FFFFFF;stop-opacity:0"/></linearGradient><path d="M21.49,14c-1.511,0.153-2.622,1.486-2.5,3c0,0.276,0.224,0.5,0.5,0.5s0.5-0.224,0.5-0.5     c0-1.1,0.67-2,1.5-2s1.5,0.9,1.5,2s-0.67,2-1.5,2H16.8l-1.66-3.41c1.484-0.265,2.782-1.158,3.56-2.45c0.64-1.37,0.23-3-1.22-4.85     c0.214-0.369,0.385-0.762,0.51-1.17c0.066-0.276-0.104-0.554-0.38-0.62c-0.276-0.066-0.554,0.104-0.62,0.38     C16.877,7.273,16.712,7.65,16.5,8c-0.033,0.039-0.06,0.083-0.08,0.13c-0.729,1.189-2.035,1.901-3.43,1.87     c-1.51,0-3.2-1.24-5-2.56C5.8,5.83,3.31,4,0.49,4C0.214,4.006-0.005,4.235,0.001,4.511C0.005,4.677,0.09,4.83,0.23,4.92     c0,0,4.26,2.68,4.26,5.58c0.045,0.548-0.037,1.099-0.24,1.61c-0.192,0.437-0.281,0.913-0.26,1.39c0,1.1,1.23,1.73,2.92,2.09     L5.18,19H1.49c-0.276,0-0.5,0.224-0.5,0.5S1.214,20,1.49,20h20c1.511-0.153,2.622-1.486,2.5-3     C24.112,15.486,23.001,14.153,21.49,14z M7.99,15.77c1.327,0.164,2.663,0.241,4,0.23c0.717-0.004,1.433-0.067,2.14-0.19L15.69,19     H6.3L7.99,15.77z" style="fill:url(#SVGID_5_);"/></g><g><path d="M16.88,8.34L16.88,8.34c-0.81,1.371-2.298,2.197-3.89,2.16c-3.62,0-7.56-6-12.5-6     c0,0,4.5,2.79,4.5,6c0,2-0.5,1.54-0.5,3s3.54,2,7.5,2S21.18,13.54,16.88,8.34z" style="fill:#D51C29;"/><path d="M5.74,13c0-1.46,0.5-1,0.5-3s-1.69-3.78-3-4.88     C2.373,4.735,1.438,4.525,0.49,4.5c0,0,4.5,2.79,4.5,6c0,2-0.5,1.54-0.5,3s3.54,2,7.5,2c1.621,0.045,3.229-0.298,4.69-1     c-1.114,0.346-2.274,0.521-3.44,0.52C9.28,15,5.74,14.43,5.74,13z" style="opacity:0.2;fill:#FFFFFF;enable-background:new    ;"/><path d="M16.94,8.51L16.94,8.51c-0.244,0.389-0.54,0.742-0.88,1.05     c2.06,2.8,1.24,4.6-0.58,5.6C18.21,14.28,19.99,12.23,16.94,8.51z" style="opacity:0.1;enable-background:new    ;"/><path d="M21.49,14c-1.511,0.153-2.622,1.486-2.5,3c0,0.276,0.224,0.5,0.5,0.5s0.5-0.224,0.5-0.5     c0-1.1,0.67-2,1.5-2s1.5,0.9,1.5,2s-0.67,2-1.5,2H16.8l-1.66-3.41c1.484-0.265,2.782-1.158,3.56-2.45c0.64-1.37,0.23-3-1.22-4.85     c0.214-0.369,0.385-0.762,0.51-1.17c0.066-0.276-0.104-0.554-0.38-0.62c-0.276-0.066-0.554,0.104-0.62,0.38     C16.877,7.273,16.712,7.65,16.5,8c-0.033,0.039-0.06,0.083-0.08,0.13c-0.729,1.189-2.035,1.901-3.43,1.87     c-1.51,0-3.2-1.24-5-2.56C5.8,5.83,3.31,4,0.49,4C0.214,4.006-0.005,4.235,0.001,4.511C0.005,4.677,0.09,4.83,0.23,4.92     c0,0,4.26,2.68,4.26,5.58c0.045,0.548-0.037,1.099-0.24,1.61c-0.192,0.437-0.281,0.913-0.26,1.39c0,1.1,1.23,1.73,2.92,2.09     L5.18,19H1.49c-0.276,0-0.5,0.224-0.5,0.5S1.214,20,1.49,20h20c1.511-0.153,2.622-1.486,2.5-3     C24.112,15.486,23.001,14.153,21.49,14z M4.99,13.5c-0.019-0.343,0.042-0.685,0.18-1c0.26-0.633,0.369-1.318,0.32-2     c0-2.12-1.72-4-3.08-5.19c1.812,0.709,3.5,1.701,5,2.94C9.33,9.66,11.15,11,12.99,11c1.515,0.037,2.96-0.641,3.9-1.83     c1,1.42,1.34,2.61,0.9,3.55c-0.74,1.57-3.45,2.28-5.8,2.28C7.18,15,4.99,14.22,4.99,13.5z M7.99,15.77     c1.327,0.164,2.663,0.241,4,0.23c0.717-0.004,1.433-0.067,2.14-0.19L15.69,19H6.3L7.99,15.77z" style="fill:#303C42;"/><linearGradient gradientTransform="matrix(1 0 0 -1 0 24)" gradientUnits="userSpaceOnUse" id="SVGID_6_" x1="-1.6957" x2="23.1719" y1="15.9702" y2="4.382"><stop offset="0" style="stop-color:#FFFFFF;stop-opacity:0.2"/><stop offset="1" style="stop-color:#FFFFFF;stop-opacity:0"/></linearGradient><path d="M21.49,14c-1.511,0.153-2.622,1.486-2.5,3c0,0.276,0.224,0.5,0.5,0.5s0.5-0.224,0.5-0.5     c0-1.1,0.67-2,1.5-2s1.5,0.9,1.5,2s-0.67,2-1.5,2H16.8l-1.66-3.41c1.484-0.265,2.782-1.158,3.56-2.45c0.64-1.37,0.23-3-1.22-4.85     c0.214-0.369,0.385-0.762,0.51-1.17c0.066-0.276-0.104-0.554-0.38-0.62c-0.276-0.066-0.554,0.104-0.62,0.38     C16.877,7.273,16.712,7.65,16.5,8c-0.033,0.039-0.06,0.083-0.08,0.13c-0.729,1.189-2.035,1.901-3.43,1.87     c-1.51,0-3.2-1.24-5-2.56C5.8,5.83,3.31,4,0.49,4C0.214,4.006-0.005,4.235,0.001,4.511C0.005,4.677,0.09,4.83,0.23,4.92     c0,0,4.26,2.68,4.26,5.58c0.045,0.548-0.037,1.099-0.24,1.61c-0.192,0.437-0.281,0.913-0.26,1.39c0,1.1,1.23,1.73,2.92,2.09     L5.18,19H1.49c-0.276,0-0.5,0.224-0.5,0.5S1.214,20,1.49,20h20c1.511-0.153,2.622-1.486,2.5-3     C24.112,15.486,23.001,14.153,21.49,14z M7.99,15.77c1.327,0.164,2.663,0.241,4,0.23c0.717-0.004,1.433-0.067,2.14-0.19L15.69,19     H6.3L7.99,15.77z" style="fill:url(#SVGID_6_);"/></g></g></g></svg>