<?xml version="1.0" ?><svg id="Layer_1" style="enable-background:new 0 0 24 24;" version="1.1" viewBox="0 0 24 24" xml:space="preserve" xmlns="http://www.w3.org/2000/svg" xmlns:xlink="http://www.w3.org/1999/xlink"><title/><g id="Bow"><g><path d="M23.5,5.5c0-1.54-1.14-3-3.5-3s-3.91,1.88-5.14,3.67l0,0c-0.872-1.575-2.856-2.145-4.431-1.272    C9.981,5.146,9.597,5.496,9.31,5.92l0,0C8.25,3.939,6.242,2.646,4,2.5c-2.36,0-3.5,1.5-3.5,3s1,2.78,1,3.5s-1,2-1,3.5    s1.14,3,3.5,3c1.182-0.019,2.315-0.475,3.18-1.28c-0.974,1.96-1.545,4.095-1.68,6.28c0.872-0.842,1.888-1.519,3-2l2,3    c0,0,0.13-6.62,1.5-8c1.38,1.38,1.5,8,1.5,8l2-3c1.112,0.481,2.128,1.158,3,2c-0.065-2.001-0.538-3.968-1.39-5.78l0,0    c0.871,0.526,1.873,0.796,2.89,0.78c2.36,0,3.5-1.46,3.5-3s-1-2.78-1-3.5S23.5,7,23.5,5.5z" style="fill:#D51C29;"/><path d="M0.58,11.77c-0.05,0.24-0.077,0.485-0.08,0.73c0,1.54,1.14,3,3.5,3    c1.101-0.007,2.164-0.404,3-1.12l1.5-1.88c-1.868,2.033-5.031,2.167-7.065,0.299C1.105,12.496,0.818,12.15,0.58,11.77z" style="opacity:0.1;enable-background:new    ;"/><path d="M23.42,6.23c0.05-0.24,0.077-0.485,0.08-0.73    c0-1.54-1.14-3-3.5-3c-1.101,0.007-2.164,0.404-3,1.12L15.5,5.5c1.868-2.033,5.031-2.167,7.065-0.299    C22.895,5.504,23.182,5.85,23.42,6.23z" style="opacity:0.2;fill:#FFFFFF;enable-background:new    ;"/><path d="M9.12,5.62c-0.534-0.818-1.212-1.533-2-2.11    c-3.7,0.07-4.45,1.11-4.58,1.66C2.484,5.375,2.537,5.593,2.68,5.75C3.7,6.85,9,6.48,9,6.48L9.12,5.62z" style="opacity:0.2;fill:#FFFFFF;enable-background:new    ;"/><path d="M15,12.62c0.534,0.818,1.212,1.533,2,2.11c3.7-0.07,4.45-1.11,4.58-1.66    c0.056-0.205,0.003-0.423-0.14-0.58c-1-1.11-6.32-0.75-6.32-0.75L15,12.62z" style="opacity:0.1;enable-background:new    ;"/><path d="M23,9c0.061-0.321,0.169-0.631,0.32-0.92C23.726,7.278,23.958,6.398,24,5.5C24,3.81,22.75,2,20,2    c-2.3,0-3.85,1.53-5.15,3.32c-1.347-1.581-3.72-1.77-5.301-0.423C9.484,4.953,9.421,5.01,9.36,5.07C8.171,3.244,6.177,2.101,4,2    C1.25,2,0,3.81,0,5.5c0.042,0.898,0.274,1.778,0.68,2.58C0.831,8.369,0.939,8.679,1,9C0.939,9.321,0.831,9.631,0.68,9.92    C0.274,10.722,0.042,11.602,0,12.5C0,14.19,1.25,16,4,16c0.712-0.001,1.415-0.158,2.06-0.46C5.42,17.119,5.061,18.797,5,20.5    c0.004,0.276,0.231,0.497,0.507,0.493c0.128-0.002,0.251-0.053,0.343-0.143c0.727-0.7,1.561-1.281,2.47-1.72l1.76,2.65    c0.094,0.139,0.252,0.222,0.42,0.22h0.14c0.21-0.061,0.356-0.251,0.36-0.47c0-2.13,0.35-5.57,1-7.07c0.65,1.51,1,4.95,1,7.07    c0.004,0.219,0.15,0.409,0.36,0.47h0.14c0.168,0.002,0.326-0.081,0.42-0.22l1.76-2.65c0.909,0.439,1.743,1.02,2.47,1.72    c0.197,0.193,0.514,0.19,0.707-0.007c0.09-0.092,0.141-0.215,0.143-0.343c-0.036-1.642-0.354-3.266-0.94-4.8    c0.627,0.202,1.282,0.303,1.94,0.3c2.75,0,4-1.81,4-3.5c-0.042-0.898-0.274-1.778-0.68-2.58C23.169,9.631,23.061,9.321,23,9z     M12,5c1.88,0,3,1.5,3,4s-1.12,4-3,4s-3-1.5-3-4S10.12,5,12,5z M1,12.5c0.046-0.761,0.25-1.503,0.6-2.18    C1.818,9.91,1.953,9.462,2,9C1.953,8.538,1.818,8.09,1.6,7.68C1.25,7.003,1.046,6.261,1,5.5C1,4.35,1.79,3,4,3    c1.958,0.129,3.725,1.219,4.72,2.91V6C5.84,6.17,3.15,5.86,3,5.34C2.912,5.064,2.616,4.912,2.34,5S1.912,5.384,2,5.66    c0.39,1.15,2.86,1.39,4.92,1.39c0.48,0,0.93,0,1.33,0C8.092,7.624,8.008,8.215,8,8.81L5.66,8C5.384,7.912,5.088,8.064,5,8.34    S5.064,8.912,5.34,9l2,0.68l-2.12,1.4c-0.243,0.131-0.335,0.434-0.204,0.677C5.146,12,5.449,12.092,5.693,11.961    c0.027-0.015,0.053-0.032,0.077-0.051l2.34-1.56c0.087,0.511,0.249,1.006,0.48,1.47c-0.496,0.735-1.08,1.407-1.74,2l0,0    C6.078,14.551,5.063,14.971,4,15C1.79,15,1,13.65,1,12.5z M10.06,19.95l-1.14-1.73c-0.13-0.197-0.38-0.276-0.6-0.19    c-0.793,0.341-1.542,0.778-2.23,1.3c0.265-1.669,0.774-3.289,1.51-4.81c0.596-0.542,1.132-1.145,1.6-1.8    c0.522,0.596,1.224,1.007,2,1.17C10.507,15.838,10.122,17.883,10.06,19.95z M17.93,19.35c-0.688-0.541-1.441-0.994-2.24-1.35    c-0.22-0.086-0.47-0.007-0.6,0.19l-1.15,1.72c-0.052-2.044-0.42-4.068-1.09-6c0.656-0.137,1.261-0.452,1.75-0.91    c0.564,0.83,1.28,1.546,2.11,2.11C17.323,16.455,17.735,17.884,17.93,19.35z M20,15c-1.95,0-3.42-0.89-4.75-2.86v-0.09    c2.86-0.19,5.55,0.09,5.73,0.62c0.068,0.202,0.257,0.338,0.47,0.34h0.16c0.261-0.089,0.401-0.373,0.312-0.635    c-0.001-0.002-0.001-0.004-0.002-0.005c-0.48-1.41-4.1-1.44-6.26-1.32c0.196-0.599,0.31-1.221,0.34-1.85l2.36,0.77h0.16    c0.276,0.044,0.536-0.144,0.58-0.42s-0.144-0.536-0.42-0.58l-2-0.67l2.16-1.44c0.229-0.155,0.29-0.466,0.135-0.695    s-0.466-0.29-0.695-0.135l-2.4,1.62c-0.083-0.492-0.235-0.97-0.45-1.42C16.62,4.53,18,3,20,3c2.21,0,3,1.35,3,2.5    c-0.046,0.761-0.25,1.503-0.6,2.18C22.182,8.09,22.047,8.538,22,9c0.047,0.462,0.182,0.91,0.4,1.32    c0.35,0.677,0.554,1.419,0.6,2.18C23,13.65,22.21,15,20,15z" style="fill:#303C42;"/><path d="M12.5,7.5c0,1-0.56,1.5-1.25,1.5S10,8.51,10,7.5    S10.56,6,11.25,6S12.5,6.49,12.5,7.5z" style="opacity:0.2;fill:#FFFFFF;enable-background:new    ;"/><linearGradient gradientTransform="matrix(1 0 0 -1 0 24)" gradientUnits="userSpaceOnUse" id="SVGID_1_" x1="-0.2194" x2="22.7588" y1="18.7941" y2="8.0749"><stop offset="0" style="stop-color:#FFFFFF;stop-opacity:0.2"/><stop offset="1" style="stop-color:#FFFFFF;stop-opacity:0"/></linearGradient><path d="M23,9c0.061-0.321,0.169-0.631,0.32-0.92C23.726,7.278,23.958,6.398,24,5.5    C24,3.81,22.75,2,20,2c-2.29,0-3.84,1.52-5.14,3.3C14.154,4.454,13.101,3.976,12,4c-0.99-0.014-1.944,0.376-2.64,1.08    C8.174,3.25,6.178,2.103,4,2C1.25,2,0,3.81,0,5.5c0.042,0.898,0.274,1.778,0.68,2.58C0.831,8.369,0.939,8.679,1,9    C0.939,9.321,0.831,9.631,0.68,9.92C0.274,10.722,0.042,11.602,0,12.5C0,14.19,1.25,16,4,16c0.716,0.002,1.423-0.155,2.07-0.46    C5.429,17.119,5.067,18.797,5,20.5c0.004,0.276,0.231,0.497,0.507,0.493c0.128-0.002,0.251-0.053,0.343-0.143    c0.727-0.7,1.561-1.281,2.47-1.72l1.76,2.65c0.094,0.139,0.252,0.222,0.42,0.22h0.14c0.21-0.061,0.356-0.251,0.36-0.47    c0-2.13,0.35-5.58,1-7.08c0.65,1.5,1,5,1,7.08c0.001,0.276,0.225,0.499,0.501,0.499c0.169,0,0.327-0.087,0.419-0.229l1.76-2.65    c0.909,0.439,1.743,1.02,2.47,1.72c0.197,0.193,0.514,0.19,0.707-0.007c0.095-0.097,0.146-0.228,0.143-0.363    c-0.036-1.642-0.354-3.266-0.94-4.8c0.626,0.204,1.281,0.305,1.94,0.3c2.75,0,4-1.81,4-3.5c-0.042-0.898-0.274-1.778-0.68-2.58    C23.169,9.631,23.061,9.321,23,9z" style="fill:url(#SVGID_1_);"/></g></g></svg>