<?xml version="1.0" ?><svg id="Layer_1" style="enable-background:new 0 0 24 24;" version="1.1" viewBox="0 0 24 24" xml:space="preserve" xmlns="http://www.w3.org/2000/svg" xmlns:xlink="http://www.w3.org/1999/xlink"><title/><g id="Candy"><g><path d="M16.98,7c0.546,0.577,0.896,1.312,1,2.1l4.5-2.6c-0.63-0.63-1.33,0.08-2-0.55s0.08-1.33-0.55-2    s-1.33,0.08-2-0.54s0.08-1.33-0.54-2L14.88,6C15.668,6.104,16.403,6.454,16.98,7z" style="fill:#F8F8F8;"/><path d="M6.98,17c-0.546-0.577-0.896-1.312-1-2.1l-4.5,2.6c0.63,0.63,1.33-0.08,2,0.55s-0.08,1.33,0.55,2    s1.33-0.08,2,0.54s-0.08,1.33,0.54,2L9.08,18C8.292,17.896,7.557,17.546,6.98,17z" style="fill:#F8F8F8;"/><ellipse cx="11.981" cy="12" rx="7.08" ry="4.95" style="fill:#D51C29;" transform="matrix(0.7071 -0.7071 0.7071 0.7071 -4.9763 11.9863)"/><path d="M16.98,7c-1.93-1.94-5.73-1.27-8.5,1.5s-3.44,6.57-1.5,8.5    s5.74,1.26,8.51-1.51S18.92,8.93,16.98,7z M16.12,10.29c-0.331,1.421-1.076,2.712-2.14,3.71c-1.181,1.276-2.805,2.053-4.54,2.17    c-0.676,0.03-1.337-0.207-1.84-0.66c-0.598-0.732-0.817-1.702-0.59-2.62c0.309-1.438,1.04-2.75,2.1-3.77    c1.199-1.267,2.838-2.026,4.58-2.12c0.676-0.03,1.337,0.207,1.84,0.66c0.602,0.73,0.824,1.701,0.6,2.62L16.12,10.29z" style="opacity:0.1;enable-background:new    ;"/><path d="M8.98,14.5c-0.277,0.018-0.553-0.06-0.78-0.22    C7.954,13.902,7.874,13.439,7.98,13c0.255-1.142,0.839-2.185,1.68-3c0.905-0.989,2.145-1.606,3.48-1.73    c0.299-0.029,0.598,0.053,0.84,0.23c0.235,0.391,0.297,0.862,0.17,1.3c-0.255,1.142-0.839,2.185-1.68,3    C11.558,13.78,10.314,14.386,8.98,14.5z" style="opacity:0.2;fill:#FFFFFF;enable-background:new    ;"/><path d="M18.23,3.61c-0.091-0.04-0.176-0.094-0.25-0.16c-0.62-0.62,0.08-1.33-0.54-2L14.88,6    c0.576,0.09,1.126,0.305,1.61,0.63L18.23,3.61z" style="fill:#FFFFFF;"/><path d="M5.73,20.39c0.077,0.043,0.148,0.097,0.21,0.16    c0.62,0.62-0.08,1.33,0.54,2L9.08,18c-0.576-0.09-1.126-0.305-1.61-0.63L5.73,20.39z" style="opacity:0.1;enable-background:new    ;"/><g><path d="M22.83,6.15c-0.361-0.348-0.866-0.504-1.36-0.42c-0.34,0-0.45,0-0.6-0.13S20.72,5.34,20.74,5     c0.151-0.826-0.396-1.618-1.222-1.768c-0.178-0.032-0.36-0.033-0.538-0.002c-0.33,0-0.45,0-0.59-0.12s-0.15-0.26-0.12-0.59     c0.084-0.494-0.072-0.999-0.42-1.36C17.74,1.042,17.581,0.982,17.42,1c-0.154,0.018-0.291,0.107-0.37,0.24l-2.44,4.19     c-2.451-0.072-4.814,0.92-6.48,2.72c-1.8,1.666-2.792,4.029-2.72,6.48l-4.18,2.44c-0.239,0.138-0.321,0.444-0.183,0.683     c0.023,0.039,0.051,0.075,0.083,0.107c0.361,0.348,0.866,0.504,1.36,0.42c0.34,0,0.45,0,0.6,0.13s0.15,0.26,0.13,0.6     c-0.084,0.494,0.072,0.999,0.42,1.36c0.361,0.333,0.856,0.481,1.34,0.4c0.33,0,0.45,0,0.59,0.13s0.15,0.26,0.12,0.59     c-0.084,0.494,0.072,0.999,0.42,1.36c0.097,0.099,0.231,0.154,0.37,0.15h0.06c0.154-0.018,0.291-0.107,0.37-0.24l2.45-4.19     c0.17,0,0.34,0,0.51,0c2.282-0.1,4.434-1.087,6-2.75c1.8-1.666,2.792-4.029,2.72-6.48l4.18-2.44     c0.239-0.138,0.321-0.444,0.183-0.683C22.93,6.178,22.902,6.142,22.87,6.11L22.83,6.15z M6.71,21.15     c-0.022-0.345-0.172-0.669-0.42-0.91c-0.342-0.347-0.826-0.517-1.31-0.46c-0.33,0-0.45,0-0.59-0.13s-0.15-0.26-0.13-0.6     c0.082-0.494-0.074-0.998-0.42-1.36c-0.244-0.25-0.572-0.4-0.92-0.42l2.75-1.6c0.376,1.302,1.396,2.319,2.7,2.69L6.71,21.15z      M15.12,15.15c-2.57,2.57-6.07,3.24-7.8,1.51s-1.06-5.23,1.51-7.8c1.366-1.471,3.246-2.36,5.25-2.48     c0.231,0.002,0.462,0.022,0.69,0.06h0.08c0.675,0.104,1.3,0.415,1.79,0.89c1.73,1.75,1.05,5.25-1.51,7.82H15.12z M18.34,8.34     c-0.385-1.299-1.401-2.315-2.7-2.7l1.6-2.74c0.022,0.345,0.172,0.669,0.42,0.91c0.354,0.332,0.84,0.483,1.32,0.41     c0.33,0,0.45,0,0.59,0.13s0.15,0.26,0.13,0.6c-0.082,0.494,0.074,0.998,0.42,1.36c0.244,0.25,0.572,0.4,0.92,0.42L18.34,8.34z" style="fill:#303C42;"/><path d="M9.54,9.56c-1.059,1.02-1.791,2.332-2.1,3.77c-0.048,0.272,0.134,0.531,0.406,0.579     c0.001,0,0.003,0.001,0.004,0.001h0.13c0.241-0.001,0.447-0.173,0.49-0.41c0.274-1.233,0.907-2.357,1.82-3.23     c0.196-0.196,0.196-0.514,0-0.71s-0.514-0.196-0.71,0H9.54z" style="fill:#303C42;"/></g><linearGradient gradientTransform="matrix(1 0 0 -1 0 24)" gradientUnits="userSpaceOnUse" id="SVGID_1_" x1="5.009" x2="18.949" y1="15.2486" y2="8.7486"><stop offset="0" style="stop-color:#FFFFFF;stop-opacity:0.2"/><stop offset="1" style="stop-color:#FFFFFF;stop-opacity:0"/></linearGradient><path d="M22.83,6.15c-0.361-0.348-0.866-0.504-1.36-0.42c-0.34,0-0.45,0-0.6-0.13    S20.72,5.34,20.74,5c0.151-0.826-0.396-1.618-1.222-1.768c-0.178-0.032-0.36-0.033-0.538-0.002c-0.33,0-0.45,0-0.59-0.12    s-0.15-0.26-0.12-0.59c0.084-0.494-0.072-0.999-0.42-1.36C17.74,1.042,17.581,0.982,17.42,1c-0.154,0.018-0.291,0.107-0.37,0.24    l-2.44,4.19c-2.451-0.072-4.814,0.92-6.48,2.72c-1.8,1.666-2.792,4.029-2.72,6.48l-4.18,2.44    c-0.239,0.138-0.321,0.444-0.183,0.683c0.023,0.039,0.051,0.075,0.083,0.107c0.361,0.348,0.866,0.504,1.36,0.42    c0.34,0,0.45,0,0.6,0.13s0.15,0.26,0.13,0.6c-0.084,0.494,0.072,0.999,0.42,1.36c0.361,0.333,0.856,0.481,1.34,0.4    c0.33,0,0.45,0,0.59,0.13s0.15,0.26,0.12,0.59c-0.084,0.494,0.072,0.999,0.42,1.36c0.097,0.099,0.231,0.154,0.37,0.15h0.06    c0.154-0.018,0.291-0.107,0.37-0.24l2.45-4.19c0.17,0,0.34,0,0.51,0c2.282-0.1,4.434-1.087,6-2.75    c1.8-1.666,2.792-4.029,2.72-6.48l4.18-2.44c0.239-0.138,0.321-0.444,0.183-0.683C22.93,6.178,22.902,6.142,22.87,6.11L22.83,6.15    z" style="fill:url(#SVGID_1_);"/></g></g></svg>