<?xml version="1.0" ?><svg id="Layer_1" style="enable-background:new 0 0 24 24;" version="1.1" viewBox="0 0 24 24" xml:space="preserve" xmlns="http://www.w3.org/2000/svg" xmlns:xlink="http://www.w3.org/1999/xlink"><title/><g id="Christmas_Light"><g><path d="M17.929,1.5h3.07c0.828,0,1.5,0.672,1.5,1.5v3.07" style="fill:#5C6671;"/><path d="M19.489,9.08l3-3c-0.657-2.194-2.369-3.913-4.56-4.58l-3,3" style="fill:#5C6671;"/><path d="M17.879,6.12c1.19,1.19,2.45,2.49,0.91,6.37c-1.79,4.51-5.93,7.16-9.01,8.61    c-2.005,0.931-4.19,1.409-6.4,1.4h-0.38c-0.823,0.006-1.494-0.657-1.5-1.48c0-0.007,0-0.013,0-0.02v-0.38    c-0.009-2.21,0.469-4.395,1.4-6.4c1.45-3.08,4.1-7.22,8.61-9.01C15.389,3.67,16.679,4.93,17.879,6.12z" style="fill:#C2DCED;"/><path d="M3.999,17.27c0-0.14,0.037-0.283,0.11-0.43    c0.68-2.42,2.07-5.67,4.84-7.35c0.38-0.23,0.64-0.47,0.85-0.46c0.091,0.03,0.173,0.081,0.24,0.15c0.09,0.17-0.06,0.48-0.15,0.91    c-0.65,3-3.35,5.43-5.51,6.92L3.999,17.27z" style="opacity:0.2;fill:#FFFFFF;enable-background:new    ;"/><path d="M17.879,6.12c-1.19-1.19-2.49-2.45-6.37-0.91    c-4.51,1.79-7.16,5.93-8.61,9.01c-0.931,2.005-1.409,4.19-1.4,6.4V21c-0.006,0.823,0.657,1.494,1.48,1.5c0.007,0,0.013,0,0.02,0    h0.38c2.21,0.009,4.395-0.469,6.4-1.4c3.08-1.45,7.23-4.13,9-8.61C20.329,8.61,19.069,7.32,17.879,6.12z M16.429,10.75    c-1.52,3.84-5.19,6.22-8,7.53c-1.701,0.794-3.553,1.21-5.43,1.22c0.007-1.876,0.42-3.729,1.21-5.43c1.32-2.81,3.69-6.47,7.53-8    c0.746-0.33,1.545-0.523,2.36-0.57c0.75,0,1.09,0.27,1.86,1C16.949,7.53,17.489,8.07,16.429,10.75z" style="opacity:0.05;enable-background:new    ;"/><g><path d="M22.999,3c0-1.105-0.895-2-2-2h-3.2c-0.082,0.021-0.158,0.062-0.22,0.12L14.719,4     c-1.171,0.018-2.327,0.269-3.4,0.74c-4.6,1.84-7.32,6.05-8.87,9.26c-0.967,2.072-1.462,4.333-1.45,6.62V21c0,1.105,0.895,2,2,2     h0.38c2.287,0.013,4.548-0.483,6.62-1.45c3.22-1.51,7.43-4.27,9.26-8.88c0.469-1.07,0.721-2.222,0.74-3.39l2.86-2.86     c0.066-0.059,0.114-0.135,0.14-0.22V6.13c0.002-0.023,0.002-0.047,0-0.07V3z M21.999,3v0.95c-0.493-0.79-1.16-1.457-1.95-1.95     h0.95C21.552,2,21.999,2.448,21.999,3z M18.319,12.31c-1.71,4.3-5.7,6.91-8.75,8.34c-1.938,0.902-4.052,1.363-6.19,1.35h-0.38     c-0.552,0-1-0.448-1-1v-0.38c-0.013-2.138,0.448-4.252,1.35-6.19c1.43-3.05,4-7,8.34-8.76c0.92-0.402,1.907-0.63,2.91-0.67     c1.146,0.029,2.219,0.572,2.92,1.48C18.669,7.62,19.749,8.71,18.319,12.31z M19.799,8.05c-0.321-0.881-0.861-1.666-1.57-2.28     c-0.614-0.709-1.399-1.25-2.28-1.57l2.11-2.11c1.824,0.606,3.254,2.036,3.86,3.86L19.799,8.05z" style="fill:#303C42;"/><path d="M5.749,13.1c-0.24-0.135-0.544-0.05-0.68,0.19c-0.3,0.54-0.57,1.07-0.81,1.57     c-0.303,0.646-0.554,1.314-0.75,2c-0.077,0.265,0.075,0.543,0.34,0.62c0,0,0,0,0,0h0.14c0.222,0,0.418-0.147,0.48-0.36     c0.18-0.634,0.41-1.253,0.69-1.85c0.22-0.48,0.48-1,0.77-1.5C6.059,13.535,5.98,13.239,5.749,13.1z" style="fill:#303C42;"/></g><linearGradient gradientTransform="matrix(1 0 0 -1 0 24)" gradientUnits="userSpaceOnUse" id="SVGID_1_" x1="4.92" x2="18.8" y1="15.3" y2="8.83"><stop offset="0" style="stop-color:#FFFFFF;stop-opacity:0.2"/><stop offset="1" style="stop-color:#FFFFFF;stop-opacity:0"/></linearGradient><path d="M20.999,1h-3.07h-0.13c-0.082,0.021-0.155,0.066-0.21,0.13L14.719,4    c-1.168,0.02-2.32,0.271-3.39,0.74c-4.61,1.84-7.33,6.05-8.88,9.26c-0.967,2.072-1.462,4.333-1.45,6.62V21c0,1.105,0.895,2,2,2    h0.38c2.287,0.012,4.548-0.483,6.62-1.45c3.22-1.51,7.43-4.27,9.26-8.88c0.469-1.07,0.721-2.222,0.74-3.39l2.86-2.86    c0.066-0.059,0.114-0.135,0.14-0.22V6.13c0.002-0.023,0.002-0.047,0-0.07V3C22.999,1.895,22.104,1,20.999,1z" style="fill:url(#SVGID_1_);"/></g></g></svg>