<?xml version="1.0" ?>
<svg
  id="Layer_1"
  style="enable-background:new 0 0 24 24;"
  version="1.1"
  viewBox="0 0 24 24"
  xml:space="preserve"
  xmlns="http://www.w3.org/2000/svg"
  xmlns:xlink="http://www.w3.org/1999/xlink"
><title /><g id="Santa_Claus"><g><path
        d="M18.087,3.55c0.294,1.065,1.395,1.69,2.46,1.396c1.065-0.294,1.69-1.395,1.396-2.46    s-1.395-1.69-2.46-1.396c-0.308,0.085-0.592,0.243-0.826,0.46c-1.901-1-4.013-1.531-6.16-1.55c-3.65,0-6.61,3.62-7.32,5.12    c-0.76,0.243-1.358,0.834-1.61,1.59L3.457,7c-0.154,0.457-0.076,0.961,0.21,1.35c0.075,0.104,0.162,0.198,0.26,0.28    C2.825,9.42,2.12,10.65,1.997,12c-0.081,0.971,0.241,1.933,0.89,2.66c-0.27,0.71-0.69,2.25,0.26,3.19    c0.541,0.559,1.238,0.942,2,1.1c0.42,1,2,4.48,4.88,4.41c-0.012,0.063-0.012,0.127,0,0.19c0.031,0.252,0.246,0.442,0.5,0.44    c4.23,0,6.73-4,7.32-5c0.764-0.159,1.461-0.546,2-1.11c0.94-0.94,0.52-2.48,0.26-3.19c0.657-0.734,0.98-1.709,0.89-2.69    c-0.132-1.339-0.835-2.557-1.93-3.34c0.098-0.082,0.185-0.176,0.26-0.28c0.296-0.396,0.375-0.914,0.21-1.38l-0.11-0.32    c-0.25-0.717-0.813-1.28-1.53-1.53c-0.66-0.6-0.83-1-0.78-1.16S17.627,3.64,18.087,3.55z M19.997,2c0.552,0,1,0.448,1,1    s-0.448,1-1,1s-1-0.448-1-1S19.445,2,19.997,2z M13.907,15.79c-0.987,1.331-2.866,1.61-4.197,0.623    c-0.237-0.176-0.447-0.386-0.623-0.623c-0.141-0.238-0.062-0.544,0.175-0.685c0.209-0.124,0.477-0.079,0.635,0.105    c0.388,0.49,0.975,0.78,1.6,0.79c0.62-0.017,1.202-0.306,1.59-0.79c0.16-0.226,0.474-0.28,0.7-0.12S14.067,15.564,13.907,15.79z     M15.997,14c-0.536-0.026-1.063-0.155-1.55-0.38c-1.881-0.82-4.019-0.82-5.9,0C8.06,13.845,7.533,13.974,6.997,14    c-1.012,0.093-1.907-0.653-2-1.665c-0.01-0.112-0.01-0.224,0-0.335c0.069-1.044,0.345-2.063,0.81-3h11.38    c0.466,0.936,0.742,1.956,0.81,3c0.093,1.012-0.653,1.907-1.665,2C16.221,14.01,16.108,14.01,15.997,14z M18.477,7l0.11,0.32    c0.088,0.262-0.052,0.545-0.314,0.634c-0.05,0.017-0.103,0.026-0.156,0.026H4.887C4.611,7.978,4.389,7.752,4.391,7.476    c0-0.053,0.009-0.106,0.026-0.156L4.517,7c0.174-0.525,0.625-0.909,1.17-1h11.76C17.939,6.135,18.327,6.512,18.477,7z"
        style="fill:#fff;"
      /><circle cx="8.997" cy="11" r="1" style="fill:#fff;" /><circle
        cx="13.997"
        cy="11"
        r="1"
        style="fill:#fff;"
      /></g></g></svg>
